<?xml version="1.0" encoding="UTF-8"?>
<svg width="491px" height="378px" viewBox="0 0 491 378" version="1.1" xmlns="http://www.w3.org/2000/svg" xmlns:xlink="http://www.w3.org/1999/xlink">
    <!-- Generator: Sketch 53 (72520) - https://sketchapp.com -->
    <title>Baseboard_Meadow_Debug_Flat_for_Laser</title>
    <desc>Created with Sketch.</desc>
    <g id="Baseboard_Meadow_Debug_Flat_for_Laser" stroke="none" stroke-width="1" fill="none" fill-rule="evenodd">
        <g id="Group" transform="translate(245.022000, 189.170000) scale(-1, 1) translate(-245.022000, -189.170000) translate(12.022000, 12.670000)" stroke="#1A80AA">
            <path d="M382.4921,54.7526483 C382.4921,52.1093387 380.346512,49.9650967 377.700512,49.9650967 C375.055858,49.9664419 372.90758,52.1120291 372.90758,54.7539935 C372.90758,57.3973031 375.055858,59.5415451 377.700512,59.5415451 C380.346512,59.5401999 382.4921,57.3946127 382.4921,54.7526483" id="Path"></path>
            <path d="M315.339929,54.7526483 C315.339929,52.1093387 313.194342,49.9650967 310.548342,49.9650967 C307.903687,49.9664419 305.755409,52.1120291 305.755409,54.7539935 C305.755409,57.3973031 307.903687,59.5415451 310.548342,59.5415451 C313.194342,59.5401999 315.339929,57.3946127 315.339929,54.7526483" id="Path"></path>
            <path d="M315.339929,313.35173 C315.339929,310.709766 313.194342,308.565524 310.548342,308.566869 C307.903687,308.566869 305.755409,310.711111 305.755409,313.354421 C305.755409,315.99773 307.903687,318.141972 310.548342,318.141972 C313.194342,318.140627 315.339929,315.99504 315.339929,313.35173" id="Path"></path>
            <path d="M382.4921,313.35173 C382.4921,310.709766 380.346512,308.565524 377.700512,308.566869 C375.055858,308.566869 372.90758,310.711111 372.90758,313.354421 C372.90758,315.99773 375.055858,318.141972 377.700512,318.141972 C380.346512,318.140627 382.4921,315.99504 382.4921,313.35173" id="Path"></path>
            <path d="M465.740883,346.122043 C465.740883,342.791339 463.035694,340.090186 459.703644,340.090186 C456.370249,340.091531 453.666406,342.795374 453.666406,346.124734 C453.666406,349.454093 456.370249,352.155246 459.703644,352.153901 C463.035694,352.153901 465.740883,349.450058 465.740883,346.122043" id="Path"></path>
            <path d="M12.948,346.283467 C12.948,342.952762 10.2441566,340.251609 6.91076157,340.251609 C3.57736655,340.252954 0.873523132,342.955453 0.873523132,346.286157 C0.873523132,349.615517 3.57736655,352.31667 6.91076157,352.315324 C10.2441566,352.315324 12.948,349.611481 12.948,346.283467" id="Path"></path>
            <path d="M12.948,6.97129602 C12.948,3.64059139 10.2441566,0.939438365 6.91076157,0.940783561 C3.57736655,0.940783561 0.873523132,3.64328178 0.873523132,6.97398641 C0.873523132,10.3033458 3.57736655,13.0044989 6.91076157,13.0031537 C10.2441566,13.0031537 12.948,10.3006554 12.948,6.97129602" id="Path"></path>
            <path d="M465.740883,6.80852733 C465.740883,3.4791679 463.035694,0.778014878 459.703644,0.778014878 C456.370249,0.780705269 453.666406,3.48320349 453.666406,6.81256292 C453.666406,10.1419224 456.370249,12.8430754 459.703644,12.8430754 C463.035694,12.8417302 465.740883,10.139232 465.740883,6.80852733" id="Path"></path>
        </g>
        <rect id="Rectangle" stroke="#1A80AA" x="0.5" y="0.5" width="490" height="377" rx="20"></rect>
        <g id="Wilderness-Labs-Logo-Mono" transform="translate(114.000000, 111.000000)" fill="#443F35">
            <path d="M178.631122,79.9112614 L175.522933,87.5681642 L163.139382,66.8283358 L126.037937,59.0325138 L115.310994,68.1930132 C114.642257,68.85146 113.780574,69.280762 112.850686,69.4187714 C111.653336,69.4187714 110.078739,68.0949526 110.078739,68.0949526 L101.369248,61.9661617 L87.6489302,87.5763359 L84.0732824,80.3607061 L125.42286,2.81924381 C125.42286,2.81924381 126.505395,0 128.965703,0 C131.426012,0 132.565954,2.84375897 132.565954,2.84375897 L178.655725,79.894918 L178.631122,79.9112614 Z" id="Path"></path>
            <path d="M92.5279721,106.21325 C93.6661639,106.16911 94.7058723,105.558497 95.2951218,104.588123 C95.8269408,103.682225 95.8965734,102.579188 95.4828636,101.614141 L57.6080122,24.9894158 C57.0656864,23.9098681 55.9188023,23.266669 54.7102595,23.3642891 C53.5090377,23.261904 52.3690665,23.9085119 51.8451576,24.9894158 L20.0841561,101.159106 C19.6970206,102.306828 19.7942233,103.561796 20.3535247,104.636877 C20.950685,105.535637 21.9278592,106.113294 23.0063968,106.205124 L53.7307375,106.205124 L53.7307375,113.518194 C53.7307375,113.518194 53.8286897,116.768448 57.1019258,116.768448 C60.3751619,116.768448 60.3669992,113.477566 60.3669992,113.477566 L60.3669992,106.164496 L92.5279721,106.21325 Z M54.9796281,34.6345429 L87.0916249,99.6396121 L27.8876816,99.6396121 L54.9796281,34.6345429 Z" id="Shape"></path>
            <path d="M241.992531,106.21325 C243.129281,106.170809 244.167459,105.559398 244.752,104.588123 C245.289141,103.684328 245.361898,102.58001 244.947939,101.614141 L207.082803,24.9894158 C206.538685,23.9114776 205.392795,23.2689478 204.184545,23.3642891 C202.983113,23.261904 201.842943,23.9085119 201.318943,24.9894158 L169.552396,101.159106 C169.160771,102.305498 169.255099,103.56119 169.813648,104.636877 C170.413501,105.536867 171.393847,106.114521 172.475147,106.205124 L203.204852,106.205124 L203.204852,113.518194 C203.204852,113.518194 203.302821,116.768448 206.568464,116.768448 C209.834108,116.768448 209.834108,113.477566 209.834108,113.477566 L209.834108,106.164496 L241.992531,106.21325 Z M204.437632,34.6345429 L236.555235,99.6396121 L177.34912,99.6396121 L204.478453,34.6345429 L204.437632,34.6345429 Z" id="Shape"></path>
            <path d="M0,127.28567 L3.91702067,127.28567 L5.9373787,140.829649 L6.25074036,142.83706 C6.41566754,143.885106 6.53111657,144.892843 6.61358017,145.81996 L6.81149279,148.294961 C6.86767159,148.59894 6.90621617,148.905782 6.92694182,149.214017 L7.00940541,148.286899 C7.32276707,145.062143 7.67736052,142.248542 8.07318577,139.886408 L10.2172392,127.277608 L13.3013776,127.277608 L15.3217356,139.539746 C15.9154735,143.143412 16.3525305,146.198869 16.5504431,149.020532 C16.822573,146.045693 17.1771664,143.296588 17.4987745,140.628102 L17.8121361,138.693248 L19.5191325,127.277608 L23.3536896,127.277608 L18.0925123,156.46972 L14.9671421,156.46972 L12.8643205,143.844797 C12.8643205,143.73193 12.7076397,143.038608 12.5097271,141.676148 L12.1139018,138.733557 C12.1139018,138.314339 11.957221,137.419469 11.8005402,136.024761 L11.7180766,134.791292 C11.6768448,135.412057 11.6026275,135.799028 11.5613958,136.10538 C11.4377004,137.774192 11.3634831,138.70131 11.3222513,138.854485 L10.9264261,141.676148 C10.7285135,142.957989 10.6460499,143.691621 10.6130644,143.844797 L8.39479378,156.46972 L5.18696001,156.46972 L0,127.28567 Z" id="Path"></path>
            <polygon id="Path" points="29.192112 127.277608 32.6951654 127.277608 32.6951654 156.46972 29.192112 156.46972"></polygon>
            <polygon id="Path" points="39.7012723 127.277608 43.6880678 127.277608 43.6880678 153.131175 50.2104326 153.131175 50.2104326 156.46972 39.7012723 156.46972"></polygon>
            <path d="M54.8811705,127.283839 L59.6839688,127.283839 C60.9330873,127.241994 62.1803489,127.411136 63.3741188,127.784261 C64.3407077,128.099928 65.2039858,128.674659 65.8715739,129.446952 C67.0244995,130.801493 67.8176991,132.428873 68.1769171,134.176744 C68.7330139,136.82872 68.9668692,139.539095 68.8733229,142.24806 C68.9151179,144.893885 68.6464296,147.535409 68.0728565,150.117594 C67.7055308,151.815666 66.8476374,153.365992 65.60742,154.572961 C64.1905945,155.848229 61.6531161,156.46972 58.0029894,156.46972 L54.8811705,156.46972 L54.8811705,127.283839 Z M58.8034558,153.047482 C61.1488223,153.047482 62.7577597,152.312992 63.5662307,150.876298 C64.3747018,149.439603 64.798949,146.614643 64.798949,142.425629 C64.798949,137.897621 64.4147251,134.798235 63.6062541,133.127473 C62.8173037,131.458734 61.0868184,130.456142 59.2597216,130.609222 L58.8034558,130.609222 L58.8034558,153.047482 Z" id="Shape" fill-rule="nonzero"></path>
            <polygon id="Path" points="75.9317278 127.277608 86.4086514 127.277608 86.4086514 130.600025 79.8807221 130.600025 79.8807221 139.857634 85.6510892 139.857634 85.6510892 143.180051 79.8807221 143.180051 79.8807221 153.131175 86.3764147 153.131175 86.3764147 156.46972 75.8994911 156.46972"></polygon>
            <path d="M92.2470738,127.277608 L97.7208608,127.277608 C99.9682633,127.277608 101.645302,127.777584 102.743465,128.825919 C104.17363,130.140371 104.871687,132.148336 104.871687,134.85788 C104.871687,139.043158 103.322341,141.672061 100.615243,142.252678 L106.259288,156.46972 L102.053921,156.46972 L96.4098761,142.188165 L96.4098761,156.46972 L92.2470738,156.46972 L92.2470738,127.277608 Z M96.4098761,140.180199 C99.6447735,140.180199 100.828065,138.898004 100.828065,135.535266 C100.828065,131.898349 99.6788251,130.503256 97.1079329,130.503256 L96.4098761,130.503256 L96.4098761,140.180199 Z" id="Shape" fill-rule="nonzero"></path>
            <path d="M112.17198,127.277608 L115.934977,127.277608 L119.937288,138.922196 C121.084342,142.212357 122.115865,145.736377 123.023606,149.453936 C122.423378,145.718632 122.106182,141.94512 122.074604,138.164169 L122.074604,127.277608 L126.109924,127.277608 L126.109924,156.46972 L122.313918,156.46972 L117.83298,143.349398 C116.939909,140.778296 116.201453,138.158362 115.621394,135.50301 C115.621394,135.156253 115.423341,134.648213 115.26655,133.99502 C115.358189,134.465882 115.410625,134.943228 115.423341,135.422369 L115.621394,138.406093 L115.860707,142.010754 C115.860707,142.430088 115.860707,142.978448 115.860707,143.712283 L116.05876,156.445528 L112.09771,156.445528 L112.17198,127.277608 Z" id="Path"></path>
            <polygon id="Path" points="133.116031 127.277608 143.625191 127.277608 143.625191 130.600025 137.109511 130.600025 137.109511 139.857634 142.88955 139.857634 142.88955 143.180051 137.109511 143.180051 137.109511 153.131175 143.625191 153.131175 143.625191 156.46972 133.116031 156.46972"></polygon>
            <path d="M158.608145,131.026725 C157.712011,130.269182 156.614405,129.815273 155.462927,129.726035 C154.525868,129.684478 153.622054,130.091337 153.009656,130.830394 C152.335681,131.598589 151.982194,132.613594 152.026775,133.652644 C152.005827,134.592737 152.24021,135.519909 152.702997,136.327646 C153.668826,137.685856 154.756163,138.945818 155.950436,140.090645 C157.212714,141.335053 158.274648,142.78234 159.095654,144.377193 C159.704219,145.712668 160.00316,147.178047 159.968452,148.65556 C160.033553,150.717836 159.361149,152.731944 158.081321,154.30824 C156.895142,155.721471 155.166382,156.512829 153.363493,156.467875 C151.858981,156.503579 150.385394,156.020361 149.172489,155.093562 L149.172489,151.126051 C150.221038,152.056738 151.531775,152.607937 152.907436,152.696694 C154.983281,152.696694 156.233505,151.126051 156.233505,148.65556 C156.247262,147.642688 156.01177,146.642988 155.54942,145.751506 C154.830869,144.59152 153.983707,143.523457 153.025382,142.569317 C151.538226,141.22208 150.241152,139.663352 149.172489,137.939191 C148.559141,136.602754 148.262548,135.132864 148.307554,133.652644 C148.201912,131.659481 148.819253,129.69767 150.037424,128.155392 C151.233174,126.769311 152.967521,126.020505 154.755252,126.118464 C156.124954,126.123967 157.473325,126.471861 158.686776,127.132838 L158.608145,131.026725 Z" id="Path"></path>
            <path d="M176.123412,131.026725 C175.227278,130.269182 174.129672,129.815273 172.978194,129.726035 C172.041135,129.684478 171.137321,130.091337 170.524923,130.830394 C169.850948,131.598589 169.497461,132.613594 169.542042,133.652644 C169.521094,134.592737 169.755477,135.519909 170.218264,136.327646 C171.184093,137.685856 172.27143,138.945818 173.465703,140.090645 C174.727981,141.335053 175.789916,142.78234 176.610921,144.377193 C177.219486,145.712668 177.518427,147.178047 177.48372,148.65556 C177.54882,150.717836 176.876416,152.731944 175.596588,154.30824 C174.410409,155.721471 172.681649,156.512829 170.87876,156.467875 C169.374248,156.503579 167.900661,156.020361 166.687756,155.093562 L166.687756,151.126051 C167.736305,152.056738 169.047042,152.607937 170.422704,152.696694 C172.498548,152.696694 173.748772,151.126051 173.748772,148.65556 C173.762529,147.642688 173.527037,146.642988 173.064687,145.751506 C172.346136,144.59152 171.498974,143.523457 170.540649,142.569317 C169.053493,141.22208 167.75642,139.663352 166.687756,137.939191 C166.074408,136.602754 165.777816,135.132864 165.822821,133.652644 C165.717179,131.659481 166.33452,129.69767 167.552692,128.155392 C168.748442,126.769311 170.482788,126.020505 172.27052,126.118464 C173.639993,126.125874 174.987937,126.473657 176.202043,127.132838 L176.123412,131.026725 Z" id="Path"></path>
            <polygon id="Path" points="197.338677 127.277608 201.325472 127.277608 201.325472 153.131175 207.847837 153.131175 207.847837 156.46972 197.338677 156.46972"></polygon>
            <path d="M219.178701,127.277608 L222.365807,127.277608 L228.866158,156.46972 L224.829718,156.46972 L223.660832,150.776452 L217.639809,150.776452 L216.470923,156.46972 L212.518575,156.46972 L219.178701,127.277608 Z M223.089003,147.712087 L222.163985,143.067154 C221.558519,139.889891 221.073586,136.521777 220.709185,132.962812 C220.347587,136.406191 219.742121,139.970532 218.976879,143.994528 L218.211638,147.712087 L223.089003,147.712087 Z" id="Shape" fill-rule="nonzero"></path>
            <path d="M234.70458,127.277608 L239.899299,127.277608 C243.914466,127.277608 245.937673,129.864047 245.937673,135.044982 C245.937673,138.952841 245.039338,140.685191 242.375579,141.619855 C243.646064,142.050105 244.744048,142.899509 245.500222,144.037087 C246.153297,145.392858 246.452168,146.900912 246.367311,148.412278 C246.367311,153.786592 244.148814,156.46972 239.688386,156.46972 L234.70458,156.46972 L234.70458,127.277608 Z M238.336978,140.113113 C239.797749,140.113113 240.844504,139.766643 241.40694,139.073703 C241.969376,138.380763 242.274028,137.019055 242.274028,135.165844 C242.274028,132.031499 241.180403,130.444183 238.969718,130.444183 L238.336978,130.444183 L238.336978,140.113113 Z M238.336978,153.06948 C241.461621,153.06948 242.461507,151.876978 242.461507,148.275302 C242.461507,146.42209 242.156854,145.108727 241.524114,144.367442 C240.891374,143.626158 239.868053,143.247458 238.336978,143.247458 L238.336978,153.06948 Z" id="Shape" fill-rule="nonzero"></path>
            <path d="M261.363981,131.025232 C260.468684,130.266269 259.37072,129.812155 258.218974,129.72447 C257.282628,129.686543 256.380326,130.092772 255.765869,130.828891 C255.091939,131.597128 254.738476,132.612191 254.783054,133.651299 C254.75968,134.592833 254.997137,135.521485 255.467093,136.326451 C256.430238,137.686958 257.517718,138.947241 258.714313,140.089663 C259.974195,141.336299 261.035758,142.783259 261.85932,144.376451 C262.465134,145.712685 262.761356,147.178115 262.724197,148.655059 C262.793077,150.718047 262.120259,152.733644 260.837193,154.308057 C259.651759,155.72231 257.922667,156.513917 256.119682,156.467813 C254.615439,156.502288 253.142324,156.019165 251.92896,155.093422 L251.92896,151.125689 C252.980447,152.056528 254.293593,152.607648 255.671519,152.69642 C257.747223,152.69642 258.989501,151.125689 258.989501,148.655059 C259.001892,147.643287 258.769358,146.644541 258.313324,145.750841 C257.591493,144.591017 256.741815,143.522978 255.781594,142.568474 C254.296963,141.218646 253.000291,139.660207 251.92896,137.938088 C251.319398,136.60026 251.023017,135.13124 251.064083,133.651299 C250.956747,131.656417 251.577346,129.692935 252.8017,128.153738 C253.987859,126.778031 255.705588,126.030074 257.479898,126.116696 C258.849507,126.122199 260.197787,126.470112 261.411156,127.131127 L261.363981,131.025232 Z" id="Path"></path>
        </g>
    </g>
</svg>